<svg width="44" height="44" viewBox="0 0 44 44" fill="none" xmlns="http://www.w3.org/2000/svg">
<path fill-rule="evenodd" clip-rule="evenodd" d="M22 44C34.1503 44 44 34.1503 44 22C44 9.84974 34.1503 0 22 0C9.84974 0 0 9.84974 0 22C0 34.1503 9.84974 44 22 44Z" fill="#C7E1FF"/>
<mask id="mask0_1_1013" style="mask-type:alpha" maskUnits="userSpaceOnUse" x="-1" y="-1" width="46" height="46">
<path fill-rule="evenodd" clip-rule="evenodd" d="M22 44C34.1503 44 44 34.1503 44 22C44 9.84974 34.1503 0 22 0C9.84974 0 0 9.84974 0 22C0 34.1503 9.84974 44 22 44Z" fill="white" stroke="white"/>
</mask>
<g mask="url(#mask0_1_1013)">
<path d="M17.1511 33.8011L11.3455 36.9233C11.0048 37.1065 8.31174 38.1995 8.02686 38.4449C13.4141 42.5015 18.1687 43.4054 22.9427 43.4054C27.6814 43.4054 32.8948 40.8254 36.2701 38.0499C35.9588 37.7908 34.7484 37.1485 34.374 36.9646L28.1572 33.9003C27.354 33.5043 26.8466 32.695 26.8466 31.8097V29.4049C27.0213 29.2087 27.2211 28.9568 27.4347 28.6593C28.282 27.4793 28.923 26.1813 29.3672 24.8197C30.1646 24.5772 30.752 23.8511 30.752 22.9882V20.4212C30.752 19.8566 30.4972 19.352 30.1015 18.9988V15.2881C30.1015 15.2881 30.8746 9.51349 22.9427 9.51349C15.0108 9.51349 15.7839 15.2881 15.7839 15.2881V18.9988C15.3874 19.352 15.1334 19.8566 15.1334 20.4212V22.9882C15.1334 23.6643 15.4939 24.2594 16.0336 24.6032C16.6841 27.3953 18.3875 29.4049 18.3875 29.4049V31.7503C18.3868 32.6045 17.9125 33.3914 17.1511 33.8011Z" fill="white"/>
</g>
</svg>
