<svg width="151" height="46" viewBox="0 0 151 46" fill="none" xmlns="http://www.w3.org/2000/svg">
<path d="M50.2134 32.8061H59.1027C63.776 32.8061 66.265 30.3679 66.265 27.056C66.265 23.9778 64.0604 22.1186 61.6933 22.0069V21.8037C63.8573 21.316 65.4523 19.782 65.4523 17.3336C65.4523 14.2147 63.1359 12 58.544 12H50.2134V32.8061ZM54.6123 29.2098V23.6831H58.3001C60.4133 23.6831 61.7238 24.9022 61.7238 26.6192C61.7238 28.1837 60.6571 29.2098 58.1985 29.2098H54.6123ZM54.6123 20.7065V15.5557H57.9547C59.9053 15.5557 61.0127 16.5615 61.0127 18.0651C61.0127 19.7109 59.6716 20.7065 57.8735 20.7065H54.6123Z" fill="#8CB7F5"/>
<path d="M68.5179 32.8061H72.8458V23.9778C72.8458 22.0577 74.2478 20.737 76.1577 20.737C76.7571 20.737 77.58 20.8385 77.9864 20.9706V17.1304C77.6003 17.039 77.0619 16.978 76.625 16.978C74.8776 16.978 73.4452 17.994 72.8763 19.9242H72.7137V17.2015H68.5179V32.8061Z" fill="#8CB7F5"/>
<path d="M83.6985 33.1008C86.0047 33.1008 87.4981 32.095 88.26 30.6422H88.3819V32.8061H92.4863V22.2812C92.4863 18.5629 89.3369 16.9984 85.8624 16.9984C82.1238 16.9984 79.6653 18.7864 79.0659 21.631L83.0686 21.9561C83.3633 20.9198 84.2878 20.1579 85.8421 20.1579C87.3152 20.1579 88.1584 20.8995 88.1584 22.1796V22.2405C88.1584 23.2463 87.0917 23.3784 84.3792 23.6425C81.2908 23.927 78.5173 24.9632 78.5173 28.4478C78.5173 31.5362 80.7219 33.1008 83.6985 33.1008ZM84.9379 30.1139C83.6071 30.1139 82.6521 29.4942 82.6521 28.3056C82.6521 27.0865 83.6579 26.4871 85.1818 26.2737C86.1266 26.1417 87.6708 25.9182 88.1889 25.5728V27.2287C88.1889 28.8644 86.8377 30.1139 84.9379 30.1139Z" fill="#8CB7F5"/>
<path d="M99.6436 23.7847C99.6537 21.7732 100.853 20.5947 102.6 20.5947C104.337 20.5947 105.384 21.7326 105.373 23.6425V32.8061H109.701V22.8704C109.701 19.2334 107.568 16.9984 104.317 16.9984C102.001 16.9984 100.324 18.1362 99.6233 19.9547H99.4404V17.2015H95.3157V32.8061H99.6436V23.7847Z" fill="#8CB7F5"/>
<path d="M118.334 33.0601C120.854 33.0601 122.164 31.6074 122.764 30.307H122.946V32.8061H127.213V12H122.896V19.8226H122.764C122.185 18.5527 120.935 16.9984 118.324 16.9984C114.9 16.9984 112.005 19.6601 112.005 25.0242C112.005 30.246 114.778 33.0601 118.334 33.0601ZM119.706 29.6161C117.582 29.6161 116.424 27.7265 116.424 25.0038C116.424 22.3015 117.562 20.4423 119.706 20.4423C121.809 20.4423 122.987 22.2202 122.987 25.0038C122.987 27.7875 121.788 29.6161 119.706 29.6161Z" fill="#8CB7F5"/>
<g opacity="0.8">
<path fill-rule="evenodd" clip-rule="evenodd" d="M14.4676 2.91309H37.185C40.9489 2.91309 44.0002 6.28555 44.0002 10.4457V35.5544C44.0002 39.7145 40.9489 43.087 37.185 43.087H14.4676C10.7036 43.087 7.65234 39.7145 7.65234 35.5544L7.65234 10.4457C7.65234 6.28555 10.7036 2.91309 14.4676 2.91309Z" fill="#0D6EFD" fill-opacity="0.2"/>
<path fill-rule="evenodd" clip-rule="evenodd" d="M8.13046 2.91309H32.0435C36.0055 2.91309 39.2174 6.28555 39.2174 10.4457V35.5544C39.2174 39.7145 36.0055 43.087 32.0435 43.087H8.13046C4.16841 43.087 0.956542 39.7145 0.956543 35.5544L0.956543 10.4457C0.956543 6.28555 4.16841 2.91309 8.13046 2.91309Z" fill="#0D6EFD"/>
<g opacity="0.7">
<path opacity="0.3" fill-rule="evenodd" clip-rule="evenodd" d="M15.2898 19.3563H14.3092C14.2587 19.3563 14.1837 19.4266 14.1808 19.4731L13.4585 31.1478L26.9544 31.1452L26.2249 19.4731C26.2221 19.4284 26.1453 19.3563 26.0965 19.3563H25.116V21.3216C25.116 21.8643 24.676 22.3042 24.1334 22.3042C23.5907 22.3042 23.1507 21.8643 23.1507 21.3216V19.3563H17.255V21.3216C17.255 21.8643 16.8151 22.3042 16.2724 22.3042C15.7297 22.3042 15.2898 21.8643 15.2898 21.3216V19.3563Z" fill="white"/>
<path fill-rule="evenodd" clip-rule="evenodd" d="M20.203 12.4783C22.9151 12.4783 25.1162 14.6796 25.1162 17.3891L26.0967 17.3914C27.1832 17.3914 28.119 18.2704 28.1865 19.3508L28.9242 31.1539C28.9918 32.2361 28.1695 33.1133 27.0862 33.1133H13.3199C12.2372 33.1133 11.4144 32.2344 11.4819 31.1539L12.2196 19.3508C12.2872 18.2686 13.221 17.3914 14.3094 17.3914H15.2899C15.2899 14.6781 17.4928 12.4783 20.203 12.4783ZM23.1509 17.3915C23.1509 15.765 21.8297 14.4436 20.203 14.4436C18.5776 14.4436 17.2552 15.7642 17.2552 17.3892L23.1509 17.3915ZM15.2899 19.3566H14.3094C14.2589 19.3566 14.1839 19.4269 14.181 19.4733L13.4587 31.148L26.9546 31.1455L26.2251 19.4733C26.2223 19.4286 26.1454 19.3566 26.0967 19.3566H25.1162V21.3218C25.1162 21.8645 24.6762 22.3044 24.1335 22.3044C23.5908 22.3044 23.1509 21.8645 23.1509 21.3218V19.3566H17.2552V21.3218C17.2552 21.8645 16.8152 22.3044 16.2726 22.3044C15.7299 22.3044 15.2899 21.8645 15.2899 21.3218V19.3566Z" fill="white"/>
</g>
</g>
</svg>
