<svg width="151" height="44" viewBox="0 0 151 44" fill="none" xmlns="http://www.w3.org/2000/svg">
<path d="M50.2134 31.0872H59.1027C63.776 31.0872 66.265 28.8071 66.265 25.7098C66.265 22.8311 64.0604 21.0924 61.6933 20.9879V20.7979C63.8573 20.3419 65.4523 18.9072 65.4523 16.6175C65.4523 13.7008 63.1359 11.6296 58.544 11.6296H50.2134V31.0872ZM54.6123 27.724V22.5555H58.3001C60.4133 22.5555 61.7238 23.6956 61.7238 25.3013C61.7238 26.7644 60.6571 27.724 58.1985 27.724H54.6123ZM54.6123 19.7718V14.9549H57.9547C59.9053 14.9549 61.0127 15.8955 61.0127 17.3016C61.0127 18.8407 59.6716 19.7718 57.8735 19.7718H54.6123Z" fill="#8CB7F5"/>
<path d="M68.5179 31.0872H72.8458V22.8311C72.8458 21.0354 74.2478 19.8003 76.1577 19.8003C76.7571 19.8003 77.58 19.8953 77.9864 20.0188V16.4275C77.6003 16.342 77.0619 16.285 76.625 16.285C74.8776 16.285 73.4452 17.2351 72.8763 19.0402H72.7137V16.494H68.5179V31.0872Z" fill="#8CB7F5"/>
<path d="M83.6985 31.3628C86.0047 31.3628 87.4981 30.4222 88.26 29.0636H88.3819V31.0872H92.4863V21.2444C92.4863 17.7671 89.3369 16.304 85.8624 16.304C82.1238 16.304 79.6653 17.9762 79.0659 20.6364L83.0686 20.9404C83.3633 19.9713 84.2878 19.2588 85.8421 19.2588C87.3152 19.2588 88.1584 19.9523 88.1584 21.1494V21.2064C88.1584 22.147 87.0917 22.2705 84.3792 22.5175C81.2908 22.7836 78.5173 23.7526 78.5173 27.0114C78.5173 29.8996 80.7219 31.3628 83.6985 31.3628ZM84.9379 28.5695C83.6071 28.5695 82.6521 27.99 82.6521 26.8784C82.6521 25.7383 83.6579 25.1778 85.1818 24.9782C86.1266 24.8547 87.6708 24.6457 88.1889 24.3227V25.8713C88.1889 27.4009 86.8377 28.5695 84.9379 28.5695Z" fill="#8CB7F5"/>
<path d="M99.6436 22.6505C99.6537 20.7694 100.853 19.6673 102.6 19.6673C104.337 19.6673 105.384 20.7314 105.373 22.5175V31.0872H109.701V21.7955C109.701 18.3942 107.568 16.304 104.317 16.304C102.001 16.304 100.324 17.3681 99.6233 19.0688H99.4404V16.494H95.3157V31.0872H99.6436V22.6505Z" fill="#8CB7F5"/>
<path d="M118.334 31.3248C120.854 31.3248 122.164 29.9661 122.764 28.75H122.946V31.0872H127.213V11.6296H122.896V18.9452H122.764C122.185 17.7576 120.935 16.304 118.324 16.304C114.9 16.304 112.005 18.7932 112.005 23.8096C112.005 28.693 114.778 31.3248 118.334 31.3248ZM119.706 28.104C117.582 28.104 116.424 26.3368 116.424 23.7906C116.424 21.2634 117.562 19.5248 119.706 19.5248C121.809 19.5248 122.987 21.1874 122.987 23.7906C122.987 26.3939 121.788 28.104 119.706 28.104Z" fill="#8CB7F5"/>
<g opacity="0.8">
<path fill-rule="evenodd" clip-rule="evenodd" d="M14.4676 3.13184H37.185C40.9489 3.13184 44.0002 6.28571 44.0002 10.1762V33.6575C44.0002 37.548 40.9489 40.7019 37.185 40.7019H14.4676C10.7036 40.7019 7.65234 37.548 7.65234 33.6575L7.65234 10.1762C7.65234 6.28571 10.7036 3.13184 14.4676 3.13184Z" fill="#0D6EFD" fill-opacity="0.2"/>
<path fill-rule="evenodd" clip-rule="evenodd" d="M8.13046 3.13184H32.0435C36.0055 3.13184 39.2174 6.28571 39.2174 10.1762V33.6575C39.2174 37.548 36.0055 40.7019 32.0435 40.7019H8.13046C4.16841 40.7019 0.956542 37.548 0.956543 33.6575L0.956543 10.1762C0.956543 6.28571 4.16841 3.13184 8.13046 3.13184Z" fill="#0D6EFD"/>
<g opacity="0.7">
<path opacity="0.3" fill-rule="evenodd" clip-rule="evenodd" d="M15.2898 18.5093H14.3092C14.2587 18.5093 14.1837 18.575 14.1808 18.6185L13.4585 29.5365L26.9544 29.5341L26.2249 18.6185C26.2221 18.5767 26.1453 18.5093 26.0965 18.5093H25.116V20.3471C25.116 20.8547 24.676 21.2661 24.1334 21.2661C23.5907 21.2661 23.1507 20.8547 23.1507 20.3471V18.5093H17.255V20.3471C17.255 20.8547 16.8151 21.2661 16.2724 21.2661C15.7297 21.2661 15.2898 20.8547 15.2898 20.3471V18.5093Z" fill="white"/>
<path fill-rule="evenodd" clip-rule="evenodd" d="M20.203 12.0771C22.9151 12.0771 25.1162 14.1358 25.1162 16.6696L26.0967 16.6718C27.1832 16.6718 28.119 17.4938 28.1865 18.5042L28.9242 29.5424C28.9918 30.5544 28.1695 31.3748 27.0862 31.3748H13.3199C12.2372 31.3748 11.4144 30.5528 11.4819 29.5424L12.2196 18.5042C12.2872 17.4922 13.221 16.6718 14.3094 16.6718H15.2899C15.2899 14.1344 17.4928 12.0771 20.203 12.0771ZM23.1509 16.6719C23.1509 15.1509 21.8297 13.9151 20.203 13.9151C18.5776 13.9151 17.2552 15.1501 17.2552 16.6697L23.1509 16.6719ZM15.2899 18.5096H14.3094C14.2589 18.5096 14.1839 18.5754 14.181 18.6188L13.4587 29.5368L26.9546 29.5344L26.2251 18.6188C26.2223 18.577 26.1454 18.5096 26.0967 18.5096H25.1162V20.3475C25.1162 20.855 24.6762 21.2664 24.1335 21.2664C23.5908 21.2664 23.1509 20.855 23.1509 20.3475V18.5096H17.2552V20.3475C17.2552 20.855 16.8152 21.2664 16.2726 21.2664C15.7299 21.2664 15.2899 20.855 15.2899 20.3475V18.5096Z" fill="white"/>
</g>
</g>
</svg>
